<svg width="185" height="163" viewBox="0 0 185 163" xmlns="http://www.w3.org/2000/svg" xmlns:xlink="http://www.w3.org/1999/xlink"><svg width="10" height="7" viewBox="0 0 10 7" x="170" y="126"><title>58BEAAEF-0DD7-4F5D-AA78-ECD49AC91839</title><path d="M1.175.367L5 4.183 8.825.367 10 1.542l-5 5-5-5z" fill-rule="evenodd" opacity=".4"/></svg><svg width="10" height="7" viewBox="0 0 10 7" x="170" y="109"><title>575CD9F5-599B-491E-85AC-3216B9BA95E5</title><path d="M1.175.367L5 4.183 8.825.367 10 1.542l-5 5-5-5z" fill="#FFF" fill-rule="evenodd" opacity=".4"/></svg><svg width="15" height="14" viewBox="0 0 15 14" x="136" y="131"><title>43103B2F-5AF9-4418-880A-D781EFA635A2</title><g fill-rule="evenodd" opacity=".2"><ellipse cx="7.5" cy="7.5" rx="2.375" ry="2.375"/><path d="M5.273.078L3.915 1.562H1.562c-.816 0-1.484.668-1.484 1.485v8.906c0 .817.668 1.485 1.484 1.485h11.876c.816 0 1.484-.668 1.484-1.485V3.047c0-.817-.668-1.485-1.485-1.485h-2.352L9.727.079H5.273zM7.5 11.211A3.712 3.712 0 0 1 3.79 7.5 3.712 3.712 0 0 1 7.5 3.79a3.712 3.712 0 0 1 3.71 3.71 3.712 3.712 0 0 1-3.71 3.71z"/></g></svg><svg width="15" height="13" viewBox="0 0 15 13" x="170"><title>07207FC2-B2BA-4948-A801-02E43C1198D7</title><path d="M5.25 0L3.877 1.444H1.5c-.825 0-1.5.65-1.5 1.445v8.667C0 12.35.675 13 1.5 13h12c.825 0 1.5-.65 1.5-1.444V2.889c0-.795-.675-1.445-1.5-1.445h-2.377L9.75 0h-4.5zM7.5 10.833c-2.07 0-3.75-1.617-3.75-3.61 0-1.994 1.68-3.612 3.75-3.612 2.07 0 3.75 1.618 3.75 3.611 0 1.994-1.68 3.611-3.75 3.611zm0-1.3c1.325 0 2.4-1.034 2.4-2.31 0-1.277-1.075-2.312-2.4-2.312S5.1 5.946 5.1 7.222c0 1.277 1.075 2.311 2.4 2.311z" fill="#FFF" fill-rule="evenodd" opacity=".4"/></svg><svg width="17" height="25" viewBox="0 0 17 25" x="126" y="50"><title>DFD456B4-CCDA-463E-ABFD-2A22DE0420D5</title><g fill="#FD6D51" fill-rule="evenodd"><path d="M1.324 16.5c.761-3.426 2.173-5.872 2.173-5.872.252-.483.904-.875 1.457-.875h7.033c.553 0 1.244.385 1.513.86 0 0 1.145 1.511 2.098 5.803.954 4.292 1.239 7.587 1.239 7.587a.887.887 0 0 1-.905.997H1.01a.876.876 0 0 1-.89-1.001s.444-4.075 1.205-7.5z"/><path d="M2.453 3.23c-.107-.536.106-1.313.494-1.69 0 0 .615-.961 2.114-1.037C6.56.428 8.325 2.127 8.325 2.127c.08.073.219.07.295.009 0 0 1.528-1.301 2.919-1.557 1.39-.256 2.417.998 2.417.998.401.377.64 1.114.532 1.654l-1.305 6.527c-.108.536-.643.971-1.196.971H4.954c-.553 0-1.087-.431-1.195-.971L2.453 3.23z"/></g></svg><svg width="21" height="26" viewBox="0 0 21 26" x="86"><title>E95A2A23-65BF-45FD-914F-E2E081C59545</title><g fill="none" fill-rule="evenodd"><ellipse fill="#FFD053" cx="5.2" cy="5.2" rx="5.2" ry="5.2"/><rect fill="#47D1AE" x="3.9" y="15.6" width="10.4" height="10.4" rx="1"/><path d="M16.328 4.726c.316-.456.785-.43 1.042.046l3.61 6.706c.26.481.023.872-.527.872h-8.406c-.55 0-.746-.363-.425-.826l4.706-6.798z" fill="#EF6E96"/></g></svg><svg width="26" height="21" viewBox="0 0 26 21" y="85"><title>315570F4-906C-478D-B8AC-24514C12D1F2</title><g fill="none" fill-rule="evenodd"><rect fill="#B5715C" width="26" height="4.52" rx="1"/><ellipse fill="#E47659" cx="3.5" cy="6.84" rx="2.5" ry="2.5"/><ellipse fill="#E47659" cx="22.717" cy="6.84" rx="2.5" ry="2.5"/><path d="M5.652 8.733c0-1.106.888-2.002 2-2.002 1.105 0 2 .89 2 2.002v10.566c0 .55-.443.997-1.01.997h-1.98c-.558 0-1.01-.45-1.01-.997V8.733zm5.522 0c0-1.106.888-2.002 2-2.002 1.104 0 2 .89 2 2.002v10.566c0 .55-.443.997-1.01.997h-1.98c-.558 0-1.01-.45-1.01-.997V8.733zm5.522 0c0-1.106.887-2.002 2-2.002 1.104 0 2 .89 2 2.002v10.566c0 .55-.444.997-1.01.997h-1.981c-.557 0-1.01-.45-1.01-.997V8.733z" fill="#F6BD7B"/></g></svg><svg width="26" height="13" viewBox="0 0 26 13" x="31" y="14"><title>CBB6ED5E-D169-4B7F-8215-466EBE0B99ED</title><defs><rect id="a" x="23.739" y=".13" width="1.13" height="8.35" rx=".565"/><mask id="b" x="0" y="0" width="1.13" height="8.35" fill="#fff"><use xlink:href="#a"/></mask></defs><g fill="none" fill-rule="evenodd"><path d="M4.522 4.39c0-.552.456-.999 1.002-.999h13.822a1 1 0 0 1 1.002 1.001v4.781c0 .553-.423.88-.966.725L5.488 5.928c-.534-.152-.966-.733-.966-1.274V4.39z" fill="#80A2C5"/><path d="M4.522 4.392c0-.553.456-1 1.002-1h13.822a.998.998 0 0 1 1.002.998v1.393c0 .552-.44 1.094-.978 1.21L5.5 9.963c-.54.116-.978-.235-.978-.79V4.391z" fill="#A3C5E8"/><rect fill="#505A67" width="24.87" height="4.325" rx="1"/><path d="M22.609 9.255c0-.931.752-1.686 1.695-1.686A1.7 1.7 0 0 1 26 9.255v2.378c0 .552-.443 1-1 1h-1.392a1 1 0 0 1-1-1V9.255z" fill="#EE5463"/><use stroke="#EE5463" mask="url(#b)" stroke-width="2" xlink:href="#a"/></g></svg><svg width="20" height="22" viewBox="0 0 20 22" x="83" y="106"><title>F4ECEF36-67C4-4B33-81EF-1D5AA567859C</title><defs><path d="M8.802.374c.225-.5.591-.497.815 0l8.394 18.654a.863.863 0 0 1-.54 1.201s-3.43 1.24-8.11 1.24c-4.679 0-8.407-1.254-8.407-1.254a.845.845 0 0 1-.546-1.187L8.802.374z" id="c"/></defs><g transform="rotate(40 4.452 9.652)" fill="none" fill-rule="evenodd"><mask id="d" fill="#fff"><use xlink:href="#c"/></mask><use fill="#FFCA85" transform="matrix(1 0 0 -1 0 21.468)" xlink:href="#c"/><path d="M3.884 11.44a2.558 2.558 0 0 0 0-5.116" fill="#FD6D51" mask="url(#d)" transform="rotate(-23 5.163 8.882)"/><path d="M1.28 4.349s3.968-1.535 7.932-1.535c3.964 0 7.928 1.535 7.928 1.535" stroke="#7C5829" stroke-linecap="square" mask="url(#d)"/><circle fill="#FD6D51" mask="url(#d)" cx="11.256" cy="8.186" r="2.047"/><ellipse fill="#FD6D51" mask="url(#d)" cx="9.721" cy="13.814" rx="1.535" ry="1.535"/></g></svg><svg width="26" height="11" viewBox="0 0 26 11" x="45" y="49"><title>CDA318D0-139E-412F-BE35-AEA54915DD21</title><g fill="none" fill-rule="evenodd"><path fill="#7C899A" d="M3.817 7.927H.212V6.125h1.17l.606-2.145 3.246-.512L7.764.151h7.356l3.269 3.135 5.963.9V5.51l1.2.64v1.964h-4.357"/><ellipse stroke="#393B3E" fill="#5D9EED" cx="5.958" cy="8.125" rx="2.167" ry="2.167"/><ellipse stroke="#393B3E" fill="#5D9EED" cx="18.958" cy="8.125" rx="2.167" ry="2.167"/></g></svg><svg width="21" height="25" viewBox="0 0 21 25" y="106"><title>80C3E069-99FC-44D6-AB2B-A5EA44D301EB</title><g fill="none" fill-rule="evenodd"><rect fill="#FFD053" y="6.511" width="20.8" height="18.489" rx="1"/><path d="M4.839 14.022a1.95 1.95 0 1 0 0-3.9 1.95 1.95 0 0 0 0 3.9zm5.561 0a1.95 1.95 0 1 0 0-3.9 1.95 1.95 0 0 0 0 3.9zm5.417 0a1.95 1.95 0 1 0 0-3.9 1.95 1.95 0 0 0 0 3.9z" fill="#E37257"/><rect fill="#EF886B" x="6.5" y="17.2" width="7.8" height="7.8" rx="1"/><path fill="#9ACC7D" d="M2.889 4.662L10.435.04l7.476 4.622"/><path d="M.65 4.85h19.5" stroke="#9ACC7D" stroke-linecap="round" stroke-linejoin="round"/></g></svg><svg width="19" height="26" viewBox="0 0 19 26" y="37"><title>998E9D8B-FCDA-468C-A493-E55908FFC7D3</title><g fill="none" fill-rule="evenodd"><path d="M9.328 12.47c.425.347 1.098.313 1.49-.064l4.06-3.913c.397-.383.264-.693-.283-.693H4.602c-.553 0-.652.285-.23.629l4.956 4.04z" fill="#A3C5E8"/><path d="M9.775 13.325v11.7m-4.55 0h9.1m-13-20.15h7.15m5.2 0h4.55m-16.9 0l8.131 8.131m.319.319l8.131-8.131m-9.431 6.181l1.795-3.99m2.105-4.46L13.637.121" stroke="#FFF" stroke-linecap="round" stroke-linejoin="round"/><path d="M11.075 7.15a2.275 2.275 0 1 0 0-4.55 2.275 2.275 0 0 0 0 4.55z" fill="#FD6D51"/></g></svg><svg width="17" height="25" viewBox="0 0 17 25" x="126" y="25"><title>26835C5D-9E97-4068-94E3-F450E0E8F888</title><g transform="translate(1)" fill="none" fill-rule="evenodd"><rect fill="#9ACC7D" x="2.751" width="9.905" height="17.058" rx="4.952"/><path d="M3.405 5.228h2.204M3.405 8.53h2.204m-2.204 3.3h2.204M9.63 5.228h2.2M9.63 8.53h2.2m-2.2 3.3h2.2" stroke="#356818" stroke-linecap="square"/><path d="M.576 8.29s-.642 6.018 1.132 9.027C3.483 20.325 7.7 20.118 7.7 20.118" stroke="#FFF"/><path d="M14.74 8.29s.642 6.018-1.132 9.027c-1.775 3.008-5.992 2.801-5.992 2.801" stroke="#FFF"/><path d="M7.429 20.085v3.852m-4.815 0h9.632" stroke="#FFF" stroke-linecap="square"/></g></svg><svg width="26" height="23" viewBox="0 0 26 23" x="19" y="37"><title>0C24C9AE-0B7F-4A21-9A9A-0CAA8250D7A9</title><g fill="none" fill-rule="evenodd"><rect fill="#A3C5E8" x="5.414" y="17.952" width="14.279" height="4.16" rx="1"/><rect fill="#E3F1F9" x="5.414" y="6.173" width="14.279" height="13.045" rx="1"/><path d="M9.315 18.571v-4.59m3.57 4.59v-2.804"/><path d="M15.69 13.404c6.75.949 9.76-2.325 9.443-6.709-.316-4.384-3.661-6.17-6.737-6.17-3.075 0-5.567 1.311-8.128 4.608" fill="#E3F1F9"/><path d="M6.984 13.499S.679 14.094.299 9.894c-.38-4.2 1.739-6.948 6.274-6.518 4.536.43 7.385 4.767 8.507 5.303 1.122.535 2.603 0 2.603 0" fill="#E3F1F9"/></g></svg><svg width="26" height="12" viewBox="0 0 26 12" x="45" y="37"><title>A69A242E-D5A7-4828-AC75-04DEAC95F945</title><g fill="none" fill-rule="evenodd"><path d="M9.798 3.131S1.716-1.849.356.92c-1.36 2.769 1.797 3.16 1.39 4.941-.173.753-2.704 4.74 0 5.67C4.449 12.46 9.952 8 9.952 8" fill="#7C899A"/><path d="M3.86 5.955s1.023.332 1.841.464c.819.132 2.551-.405 2.551-.405" stroke="#393B3E" fill="#D8D8D8"/><path d="M15.768 3.131s8.081-4.98 9.441-2.212c1.36 2.769-1.797 3.16-1.39 4.941.173.753 2.704 4.74 0 5.67-2.701.93-8.204-3.53-8.204-3.53" fill="#7C899A"/><path d="M21.134 5.305s-1.023-.332-1.842-.465c-.818-.132-2.55.406-2.55.406" stroke="#393B3E" fill="#D8D8D8"/><rect fill="#94CA4B" x="7.918" y="1.95" width="8.982" height="7.15" rx="2"/></g></svg><svg width="24" height="20" viewBox="0 0 24 20" x="26" y="85"><title>9BEBCE69-B150-40D8-A170-DB37C730F0FD</title><path d="M12 4.574C13.031 1.645 15.116 0 17.968 0c2.906 0 6.733 2.607 5.921 8.09-.583 3.939-5.492 7.13-8.625 9.189-1.88 1.234-3.028 2.282-3.339 2.578l-.001.15s-.022-.03-.068-.084a2.427 2.427 0 0 0-.017.017v-.037c-.278-.332-1.255-1.41-3.103-2.624C5.603 15.22.694 12.028.111 8.09-.701 2.607 3.126 0 6.03 0 8.885 0 10.97 1.645 12 4.574z" fill="#EE5463" fill-rule="evenodd"/></svg><svg width="20" height="25" viewBox="0 0 20 25" x="41" y="106"><title>0C0F2477-ACC4-4C39-B9F5-9679B6328CC4</title><g transform="translate(0 1)" fill="none" fill-rule="evenodd"><rect fill="#A3C5E8" y="7.154" width="19.512" height="16.84" rx="1"/><path d="M4.898 10.686V4.71S5.31.156 9.686.156c4.375 0 5.118 4.553 5.118 4.553v5.977" stroke="#FFF" stroke-linecap="round" stroke-linejoin="round"/></g></svg><svg width="26" height="25" viewBox="0 0 26 25" x="126"><title>10174F39-C5B8-4FB5-B597-A0D84C9AFB75</title><defs><path d="M12.044.398c.284-.476.741-.48 1.027 0l11.472 19.294c.283.477.058.864-.482.864H1.055c-.55 0-.768-.383-.482-.864L12.044.398z" id="e"/></defs><g fill="none" fill-rule="evenodd"><g transform="translate(0 4)"><mask id="f" fill="#fff"><use xlink:href="#e"/></mask><use fill="#5D9EED" xlink:href="#e"/><path d="M12.278-1.667l6.04 10.525s-1.205 2.356-2.764 1.952c-1.301-.336-2.445-2.588-3.276-2.532-1.181.079-2.526 2.046-2.526 2.046l-2.53-2.046 5.056-9.945z" fill="#E3F1F9" mask="url(#f)"/><path stroke="#5D9EED" mask="url(#f)" d="M6.52 7.66l3.185 3.185 2.666-2.666 3.207 3.207 3.504-3.503"/></g><ellipse fill="#FFD053" cx="21.889" cy="4" rx="4" ry="4"/></g></svg><svg width="17" height="25" viewBox="0 0 17 25" x="126" y="75"><title>26034C27-762A-43AD-8736-8384F13A847B</title><defs><path d="M1.324 16.5c.761-3.426 2.173-5.872 2.173-5.872.252-.483.904-.875 1.457-.875h7.033c.553 0 1.244.385 1.513.86 0 0 1.145 1.511 2.098 5.803.954 4.292 1.239 7.587 1.239 7.587a.887.887 0 0 1-.905.997H1.01a.876.876 0 0 1-.89-1.001s.444-4.075 1.205-7.5z" id="g"/><mask id="i" x="0" y="0" width="16.73" height="15.247" fill="#fff"><use xlink:href="#g"/></mask><path d="M2.453 3.23c-.107-.536.106-1.313.494-1.69 0 0 .615-.961 2.114-1.037C6.56.428 8.325 2.127 8.325 2.127c.08.073.219.07.295.009 0 0 1.528-1.301 2.919-1.557 1.39-.256 2.417.998 2.417.998.401.377.64 1.114.532 1.654l-1.305 6.527c-.108.536-.643.971-1.196.971H4.954c-.553 0-1.087-.431-1.195-.971L2.453 3.23z" id="h"/><mask id="j" x="0" y="0" width="12.089" height="10.229" fill="#fff"><use xlink:href="#h"/></mask></defs><g stroke="#FFF" stroke-width="2" fill="none" fill-rule="evenodd"><use mask="url(#i)" xlink:href="#g"/><use mask="url(#j)" xlink:href="#h"/></g></svg><svg width="21" height="26" viewBox="0 0 21 26" x="86" y="26"><title>28621E4D-EBE7-43D4-B17F-F5FE8833EA4D</title><defs><ellipse id="k" cx="5.2" cy="5.2" rx="5.2" ry="5.2"/><mask id="n" x="0" y="0" width="10.4" height="10.4" fill="#fff"><use xlink:href="#k"/></mask><rect id="l" x="3.9" y="15.6" width="10.4" height="10.4" rx="1"/><mask id="o" x="0" y="0" width="10.4" height="10.4" fill="#fff"><use xlink:href="#l"/></mask><path d="M16.328 4.726c.316-.456.785-.43 1.042.046l3.61 6.706c.26.481.023.872-.527.872h-8.406c-.55 0-.746-.363-.425-.826l4.706-6.798z" id="m"/><mask id="p" x="0" y="0" width="9.618" height="7.951" fill="#fff"><use xlink:href="#m"/></mask></defs><g stroke="#FFF" stroke-width="2" fill="none" fill-rule="evenodd"><use mask="url(#n)" xlink:href="#k"/><use mask="url(#o)" xlink:href="#l"/><use mask="url(#p)" xlink:href="#m"/></g></svg><svg width="26" height="21" viewBox="0 0 26 21" x="26" y="63"><title>391F7BD1-F5D7-468E-BB1A-04269C22F882</title><defs><rect id="q" width="26" height="4.52" rx="1"/><mask id="w" x="0" y="0" width="26" height="4.52" fill="#fff"><use xlink:href="#q"/></mask><ellipse id="r" cx="3.5" cy="6.84" rx="2.5" ry="2.5"/><mask id="x" x="0" y="0" width="5" height="5" fill="#fff"><use xlink:href="#r"/></mask><ellipse id="s" cx="22.717" cy="6.84" rx="2.5" ry="2.5"/><mask id="y" x="0" y="0" width="5" height="5" fill="#fff"><use xlink:href="#s"/></mask><path d="M5.652 8.733c0-1.106.888-2.002 2-2.002 1.105 0 2 .89 2 2.002v10.566c0 .55-.443.997-1.01.997h-1.98c-.558 0-1.01-.45-1.01-.997V8.733z" id="t"/><mask id="z" x="0" y="0" width="4" height="13.565" fill="#fff"><use xlink:href="#t"/></mask><path d="M11.174 8.733c0-1.106.888-2.002 2-2.002 1.104 0 2 .89 2 2.002v10.566c0 .55-.443.997-1.01.997h-1.98c-.558 0-1.01-.45-1.01-.997V8.733z" id="u"/><mask id="A" x="0" y="0" width="4" height="13.565" fill="#fff"><use xlink:href="#u"/></mask><path d="M16.696 8.733c0-1.106.887-2.002 2-2.002 1.104 0 2 .89 2 2.002v10.566c0 .55-.444.997-1.01.997h-1.981c-.557 0-1.01-.45-1.01-.997V8.733z" id="v"/><mask id="B" x="0" y="0" width="4" height="13.565" fill="#fff"><use xlink:href="#v"/></mask></defs><g stroke="#FFF" stroke-width="2" fill="none" fill-rule="evenodd"><use mask="url(#w)" xlink:href="#q"/><use mask="url(#x)" xlink:href="#r"/><use mask="url(#y)" xlink:href="#s"/><use mask="url(#z)" xlink:href="#t"/><use mask="url(#A)" xlink:href="#u"/><use mask="url(#B)" xlink:href="#v"/></g></svg><svg width="26" height="13" viewBox="0 0 26 13" x="52" y="63"><title>E50218C1-6C48-44B2-97D8-5E1DBA188EA1</title><defs><path d="M4.522 3.391h14.824a1 1 0 0 1 1.002 1.001v4.781c0 .553-.438.89-.96.756L13 8.3" id="C"/><mask id="H" x="0" y="0" width="15.826" height="6.567" fill="#fff"><use xlink:href="#C"/></mask><path d="M4.522 4.392c0-.553.456-1 1.002-1h13.822a.998.998 0 0 1 1.002.998v1.393c0 .552-.44 1.094-.978 1.21L5.5 9.963c-.54.116-.978-.235-.978-.79V4.391z" id="D"/><mask id="I" x="0" y="0" width="15.826" height="6.595" fill="#fff"><use xlink:href="#D"/></mask><rect id="E" width="24.87" height="4.325" rx="1"/><mask id="J" x="0" y="0" width="24.87" height="4.325" fill="#fff"><use xlink:href="#E"/></mask><path d="M22.609 9.255c0-.931.752-1.686 1.695-1.686A1.7 1.7 0 0 1 26 9.255v2.378c0 .552-.443 1-1 1h-1.392a1 1 0 0 1-1-1V9.255z" id="F"/><mask id="K" x="0" y="0" width="3.391" height="5.064" fill="#fff"><use xlink:href="#F"/></mask><rect id="G" x="23.739" y=".13" width="1.13" height="8.35" rx=".565"/><mask id="L" x="0" y="0" width="1.13" height="8.35" fill="#fff"><use xlink:href="#G"/></mask></defs><g stroke="#FFF" stroke-width="2" fill="none" fill-rule="evenodd"><use mask="url(#H)" xlink:href="#C"/><use mask="url(#I)" xlink:href="#D"/><use mask="url(#J)" xlink:href="#E"/><use mask="url(#K)" xlink:href="#F"/><use mask="url(#L)" xlink:href="#G"/></g></svg><svg width="22" height="23" viewBox="0 0 22 23" x="61" y="106"><title>59EDD943-48A7-4CB6-8241-F39FCDA0A4E4</title><defs><path d="M8.802.374c.225-.5.591-.497.815 0l8.394 18.654a.863.863 0 0 1-.54 1.201s-3.43 1.24-8.11 1.24c-4.679 0-8.407-1.254-8.407-1.254a.845.845 0 0 1-.546-1.187L8.802.374z" id="M"/></defs><g transform="rotate(40 4.879 11.126)" fill="none" fill-rule="evenodd"><mask id="N" fill="#fff"><use xlink:href="#M"/></mask><use stroke="#FFF" transform="matrix(1 0 0 -1 0 21.468)" xlink:href="#M"/><path d="M3.884 11.44a2.558 2.558 0 0 0 0-5.116" stroke="#FFF" mask="url(#N)" transform="rotate(-23 5.163 8.882)"/><path d="M1.28 4.349s3.968-1.535 7.932-1.535c3.964 0 7.928 1.535 7.928 1.535" stroke="#FFF" stroke-linecap="square" mask="url(#N)"/><circle stroke="#FFF" mask="url(#N)" cx="11.256" cy="8.186" r="2.047"/><ellipse stroke="#FFF" mask="url(#N)" cx="9.721" cy="13.814" rx="1.535" ry="1.535"/></g></svg><svg width="31" height="14" viewBox="0 0 31 14"><title>69C783D8-7300-4CE9-904E-825373518626</title><g transform="translate(1 1)" stroke="#FFF" fill="none" fill-rule="evenodd"><path d="M4.404 9.147H.244v-2.08h1.35l.7-2.475 3.745-.59L8.958.175h8.488l3.772 3.617 6.88 1.037v1.529l1.385.738v2.266h-5.027"/><ellipse cx="6.875" cy="9.375" rx="2.5" ry="2.5"/><ellipse cx="21.875" cy="9.375" rx="2.5" ry="2.5"/><path d="M9.473 9.107h9.904m-4.252-2.654v2.43m1.4-4.745h6.982M14.624.415L14.6 4.138H9.256"/></g></svg><svg width="21" height="26" viewBox="0 0 21 26" x="86" y="52"><title>A9470D6F-6A1C-48FD-A1AD-537D6E2ACC88</title><defs><rect id="O" y="6.511" width="20.8" height="18.489" rx="1"/><mask id="R" x="0" y="0" width="20.8" height="18.489" fill="#fff"><use xlink:href="#O"/></mask><path d="M4.839 14.022a1.95 1.95 0 1 0 0-3.9 1.95 1.95 0 0 0 0 3.9zm5.561 0a1.95 1.95 0 1 0 0-3.9 1.95 1.95 0 0 0 0 3.9zm5.417 0a1.95 1.95 0 1 0 0-3.9 1.95 1.95 0 0 0 0 3.9z" id="P"/><mask id="S" x="0" y="0" width="14.878" height="3.9" fill="#fff"><use xlink:href="#P"/></mask><rect id="Q" x="6.5" y="17.2" width="7.8" height="7.8" rx="1"/><mask id="T" x="0" y="0" width="7.8" height="7.8" fill="#fff"><use xlink:href="#Q"/></mask></defs><g transform="translate(0 1)" stroke="#FFF" fill="none" fill-rule="evenodd"><use mask="url(#R)" stroke-width="2" stroke-linecap="round" stroke-linejoin="round" xlink:href="#O"/><use mask="url(#S)" stroke-width="2" stroke-linecap="round" stroke-linejoin="round" xlink:href="#P"/><use mask="url(#T)" stroke-width="2" xlink:href="#Q"/><path stroke-linecap="round" stroke-linejoin="round" d="M2.889 4.662L10.435.04l7.476 4.622M.65 4.85h19.5"/></g></svg><svg width="19" height="26" viewBox="0 0 19 26" x="107"><title>D4F08206-E803-4FF3-83B1-176AB86ED8EE</title><g transform="translate(1)" stroke="#FFF" fill="none" fill-rule="evenodd"><path d="M8.775 13.325v11.7m-4.55 0h9.1m-13-20.15h7.15m5.2 0h4.55m-16.9 0l8.131 8.131m.319.319l8.131-8.131m-9.431 6.181l1.795-3.99m2.105-4.46L12.637.121" stroke-linecap="round" stroke-linejoin="round"/><ellipse cx="10.075" cy="4.875" rx="2.275" ry="2.275"/></g></svg><svg width="17" height="25" viewBox="0 0 17 25" x="107" y="26"><title>AA508896-71AA-4400-918A-96C0A093BF45</title><defs><rect id="U" x="2.751" width="9.905" height="17.058" rx="4.952"/><mask id="V" x="0" y="0" width="9.905" height="17.058" fill="#fff"><use xlink:href="#U"/></mask></defs><g transform="translate(1)" stroke="#FFF" fill="none" fill-rule="evenodd"><use mask="url(#V)" stroke-width="2" xlink:href="#U"/><path d="M3.405 5.228h2.204M3.405 8.53h2.204m-2.204 3.3h2.204M9.63 5.228h2.2M9.63 8.53h2.2m-2.2 3.3h2.2" stroke-linecap="square"/><path d="M.576 8.29s-.642 6.018 1.132 9.027C3.483 20.325 7.7 20.118 7.7 20.118"/><path d="M14.74 8.29s.642 6.018-1.132 9.027c-1.775 3.008-5.992 2.801-5.992 2.801"/><path d="M7.429 20.085v3.852m-4.815 0h9.632" stroke-linecap="square"/></g></svg><svg width="28" height="23" viewBox="0 0 28 23" y="14"><title>D0E108A9-9B13-4A02-8198-9BF588F4A7E0</title><defs><rect id="W" x="5.595" y="18.551" width="14.755" height="4.299" rx="1"/><mask id="Y" x="0" y="0" width="14.755" height="4.299" fill="#fff"><use xlink:href="#W"/></mask><path d="M20.35 13.578v4.936a.998.998 0 0 1-.991 1.008H6.586a.99.99 0 0 1-.991-.997V13.4" id="X"/><mask id="Z" x="0" y="0" width="14.755" height="6.122" fill="#fff"><use xlink:href="#X"/></mask></defs><g transform="translate(1)" stroke="#FFF" fill="none" fill-rule="evenodd"><use mask="url(#Y)" stroke-width="2" xlink:href="#W"/><use mask="url(#Z)" stroke-width="2" xlink:href="#X"/><path d="M9.626 19v-4.552M13.315 19v-2.708m2.898-2.441c6.975.98 10.085-2.402 9.758-6.932-.327-4.53-3.784-6.377-6.962-6.377-3.177 0-5.408.989-8.055 4.396" stroke-linecap="round" stroke-linejoin="round"/><path d="M7.216 13.949S.701 14.564.31 10.223c-.393-4.34 1.797-7.179 6.483-6.735 4.687.444 7.63 4.927 8.79 5.48 1.16.553 2.69 0 2.69 0" stroke-linecap="round" stroke-linejoin="round"/></g></svg><svg width="28" height="14" viewBox="0 0 28 14" x="31"><title>84C130F5-4720-420F-82A4-2113E2816AF4</title><defs><rect id="aa" x="7.918" y="1.95" width="8.982" height="7.15" rx="2"/><mask id="ab" x="0" y="0" width="8.982" height="7.15" fill="#fff"><use xlink:href="#aa"/></mask></defs><g transform="translate(1 1)" stroke="#FFF" fill="none" fill-rule="evenodd"><path d="M9.798 3.131S1.716-1.849.356.92c-1.36 2.769 1.797 3.16 1.39 4.941-.173.753-2.704 4.74 0 5.67C4.449 12.46 9.952 8 9.952 8"/><path d="M3.86 5.955s1.023.332 1.841.464c.819.132 2.551-.405 2.551-.405m7.516-2.883s8.081-4.98 9.441-2.212c1.36 2.769-1.797 3.16-1.39 4.941.173.753 2.704 4.74 0 5.67-2.701.93-8.204-3.53-8.204-3.53"/><path d="M21.134 5.305s-1.023-.332-1.842-.465c-.818-.132-2.55.406-2.55.406"/><use mask="url(#ab)" stroke-width="2" xlink:href="#aa"/></g></svg><svg width="26" height="22" viewBox="0 0 26 22" y="63"><title>E715CED7-F19F-40C2-8971-8533F68AC465</title><path d="M13 5.574C14.031 2.645 16.116 1 18.968 1c2.906 0 6.733 2.607 5.921 8.09-.583 3.939-5.492 7.13-8.625 9.189-1.88 1.234-3.028 2.282-3.339 2.578l-.001.15s-.022-.03-.068-.084a2.427 2.427 0 0 0-.017.017v-.037c-.278-.332-1.255-1.41-3.103-2.624-3.133-2.058-8.042-5.251-8.625-9.189C.299 3.607 4.126 1 7.03 1 9.885 1 11.97 2.645 13 5.574z" stroke="#FFF" fill="none" stroke-linecap="round" stroke-linejoin="round"/></svg><svg width="20" height="25" viewBox="0 0 20 25" x="21" y="106"><title>3C0DDB1C-9D2B-4A4B-A5FC-D300133D8A0A</title><defs><rect id="ac" y="7.154" width="19.512" height="16.84" rx="1"/><mask id="ad" x="0" y="0" width="19.512" height="16.84" fill="#fff"><use xlink:href="#ac"/></mask></defs><g transform="translate(0 1)" stroke="#FFF" fill="none" fill-rule="evenodd"><use mask="url(#ad)" stroke-width="2" xlink:href="#ac"/><path d="M4.898 10.686V4.71S5.31.156 9.686.156c4.375 0 5.118 4.553 5.118 4.553v5.977" stroke-linecap="round" stroke-linejoin="round"/></g></svg><svg width="27" height="27" viewBox="0 0 27 27" x="59"><title>CF11F5E0-6B33-4ACA-AD00-4A672480CF7E</title><g transform="translate(0 1)" fill="none" fill-rule="evenodd"><path d="M12.044 4.398c.284-.476.741-.48 1.027 0l11.472 19.294c.283.477.058.864-.482.864H1.055c-.55 0-.768-.383-.482-.864L12.044 4.398z" stroke="#FFF"/><path d="M12.278 4.333l6.04 8.525s-1.205 2.356-2.764 1.952c-1.301-.336-2.445-2.588-3.276-2.532-1.181.079-2.526 2.046-2.526 2.046l-2.53-2.046 5.056-7.945z"/><path d="M12.044 4.398c.284-.476.741-.48 1.027 0l11.472 19.294c.283.477.058.864-.482.864H1.055c-.55 0-.768-.383-.482-.864L12.044 4.398z" stroke="#FFF"/><path stroke="#FFF" d="M7.52 12.66l2.185 2.185 2.666-2.666 3.207 3.207 2.504-2.503"/><circle stroke="#FFF" cx="21.889" cy="4" r="4"/></g></svg><svg width="18" height="18" viewBox="0 0 18 18" x="52" y="131"><title>120ED6F4-3A35-4870-8FA7-92E17141E6F9</title><g fill="none" fill-rule="evenodd" opacity=".6"><path d="M-3-3h24v24H-3z"/><path d="M0 14.25V18h3.75L14.81 6.94l-3.75-3.75L0 14.25zM17.71 4.04a.996.996 0 0 0 0-1.41L15.37.29a.996.996 0 0 0-1.41 0l-1.83 1.83 3.75 3.75 1.83-1.83z" fill="#FFF"/></g></svg><svg width="8" height="16" viewBox="0 0 8 16" x="160" y="131"><title>29E3A68C-252D-4A18-94DC-3F04288AEB31</title><path d="M5.333 5.333V3.746c0-.717.159-1.08 1.271-1.08H8V0H5.867C3.2 0 2.133 1.78 2.133 3.733v1.6H0V8h2.133v8h3.2V8h2.35L8 5.333H5.333" fill="#FFF" fill-rule="evenodd"/></svg><svg width="8" height="16" viewBox="0 0 8 16" x="152" y="131"><title>09046339-C328-42E9-98D5-49C606DB56C9</title><path d="M5.333 5.333V3.746c0-.717.159-1.08 1.271-1.08H8V0H5.867C3.2 0 2.133 1.78 2.133 3.733v1.6H0V8h2.133v8h3.2V8h2.35L8 5.333H5.333" fill-rule="evenodd" opacity=".4"/></svg><svg width="15" height="16" viewBox="0 0 15 16" x="106" y="131"><title>480391DC-A8A1-494A-8B1B-0F95848F0885</title><g fill="#FFF" fill-rule="evenodd"><path d="M8.91 9.86a5.997 5.997 0 0 0-1.021-1.035c-.361-.296-.816-.579-1.064-.988-.573-.945.662-1.673 1.196-2.27 1.215-1.357.894-3.85-.652-4.83.384 0 .91.1 1.274-.01.42-.127.858-.502 1.24-.725-1.322 0-2.644-.005-3.966 0C4.682.006 3.403.182 2.42.99 1.304 1.91.707 3.42 1.164 4.837c.533 1.647 2.263 2.35 3.87 2.153-.089.34-.237.608-.192.971.056.45.311.864.583 1.216-1.468.038-3.218.294-4.376 1.27-1.096.924-1.427 2.6-.45 3.726 1.008 1.164 2.88 1.393 4.321 1.29 1.28-.093 2.55-.494 3.476-1.416 1.094-1.085 1.489-2.877.513-4.186-.164-.22.165.22 0 0zM5.322 6.479c-2.655 0-3.84-5.821-.772-5.806 1.501.008 2.18 1.67 2.406 2.917.232 1.278-.042 2.89-1.634 2.89zm2.572 6.99c-.872 1.491-3.313 1.349-4.668.75-1.407-.62-2.12-2.446-.824-3.592.565-.501 1.399-.723 2.129-.824.403-.056.85-.106 1.256-.06.294.032.471.2.717.374 1.067.755 2.204 1.958 1.39 3.352-.17.291.171-.293 0 0z"/><path d="M14.452 2.065h-2.065V0h-1.032v2.065H9.29v1.032h2.065V5.16h1.032V3.097h2.065V2.065"/></g></svg><svg width="15" height="16" viewBox="0 0 15 16" x="152" y="71"><title>9842BEB3-D949-446B-ADF8-91B2A19A7FFE</title><g fill-rule="evenodd" opacity=".4"><path d="M8.91 9.86a5.997 5.997 0 0 0-1.021-1.035c-.361-.296-.816-.579-1.064-.988-.573-.945.662-1.673 1.196-2.27 1.215-1.357.894-3.85-.652-4.83.384 0 .91.1 1.274-.01.42-.127.858-.502 1.24-.725-1.322 0-2.644-.005-3.966 0C4.682.006 3.403.182 2.42.99 1.304 1.91.707 3.42 1.164 4.837c.533 1.647 2.263 2.35 3.87 2.153-.089.34-.237.608-.192.971.056.45.311.864.583 1.216-1.468.038-3.218.294-4.376 1.27-1.096.924-1.427 2.6-.45 3.726 1.008 1.164 2.88 1.393 4.321 1.29 1.28-.093 2.55-.494 3.476-1.416 1.094-1.085 1.489-2.877.513-4.186-.164-.22.165.22 0 0zM5.322 6.479c-2.655 0-3.84-5.821-.772-5.806 1.501.008 2.18 1.67 2.406 2.917.232 1.278-.042 2.89-1.634 2.89zm2.572 6.99c-.872 1.491-3.313 1.349-4.668.75-1.407-.62-2.12-2.446-.824-3.592.565-.501 1.399-.723 2.129-.824.403-.056.85-.106 1.256-.06.294.032.471.2.717.374 1.067.755 2.204 1.958 1.39 3.352-.17.291.171-.293 0 0z"/><path d="M14.452 2.065h-2.065V0h-1.032v2.065H9.29v1.032h2.065V5.16h1.032V3.097h2.065V2.065"/></g></svg><svg width="16" height="16" viewBox="0 0 16 16" x="152" y="87"><title>9EEA3DC2-696B-459E-82CB-EA21F46C9B89</title><path d="M14.154 6.769h-1.393c.102.393.162.805.162 1.231a4.923 4.923 0 0 1-9.846 0c0-.426.06-.838.162-1.231H1.846v6.77c0 .339.275.614.616.614h11.076c.34 0 .616-.275.616-.615v-6.77zm0-4.307a.616.616 0 0 0-.616-.616h-1.846a.616.616 0 0 0-.615.616v1.846c0 .34.276.615.615.615h1.846c.34 0 .616-.276.616-.615V2.462zM8 4.923a3.076 3.076 0 1 0 0 6.153 3.076 3.076 0 0 0 0-6.153zM14.154 16H1.846A1.846 1.846 0 0 1 0 14.153V1.846C0 .826.826 0 1.846 0h12.308C15.174 0 16 .826 16 1.846v12.307c0 1.02-.826 1.847-1.846 1.847z" fill="#FFF" fill-rule="evenodd"/></svg><svg width="16" height="16" viewBox="0 0 16 16" x="152" y="103"><title>528B40A9-1F3F-4EA9-A96B-D89ADACB6EDF</title><path d="M14.154 6.769h-1.393c.102.393.162.805.162 1.231a4.923 4.923 0 0 1-9.846 0c0-.426.06-.838.162-1.231H1.846v6.77c0 .339.275.614.616.614h11.076c.34 0 .616-.275.616-.615v-6.77zm0-4.307a.616.616 0 0 0-.616-.616h-1.846a.616.616 0 0 0-.615.616v1.846c0 .34.276.615.615.615h1.846c.34 0 .616-.276.616-.615V2.462zM8 4.923a3.076 3.076 0 1 0 0 6.153 3.076 3.076 0 0 0 0-6.153zM14.154 16H1.846A1.846 1.846 0 0 1 0 14.153V1.846C0 .826.826 0 1.846 0h12.308C15.174 0 16 .826 16 1.846v12.307c0 1.02-.826 1.847-1.846 1.847z" fill-rule="evenodd" opacity=".4"/></svg><svg width="15" height="14" viewBox="0 0 15 14" x="121" y="131"><title>12400D5D-3D80-453F-B65D-92EDADDB6EA1</title><path d="M7.5 13.094l-.26-.212C1.543 8.242 0 6.61 0 3.956A3.96 3.96 0 0 1 3.956 0C5.779 0 6.809 1.035 7.5 1.814 8.19 1.035 9.221 0 11.044 0A3.96 3.96 0 0 1 15 3.956c0 2.653-1.543 4.286-7.24 8.926l-.26.212z" fill="#EA2727" fill-rule="evenodd"/></svg><svg width="18" height="18" viewBox="0 0 18 18" x="70" y="131"><title>D38A3F71-976D-4D0B-965B-783178193008</title><path d="M8.5 14l5-5-5-5-1.4 1.4L9.7 8H0v2h9.7l-2.6 2.6L8.5 14zM2 0C.9 0 0 .9 0 2v4h2V2h14v14H2v-4H0v4c0 1.1.9 2 2 2h14c1.1 0 2-.9 2-2V2c0-1.1-.9-2-2-2H2z" fill="#FFF" fill-rule="evenodd" opacity=".6"/></svg><svg width="14" height="14" viewBox="0 0 14 14" x="170" y="52"><title>187B609D-6006-4D71-9D65-77EFA3821504</title><path d="M13.611 0h-.155L9.333 1.633 4.667 0 .31 1.478c-.154.078-.31.155-.31.389V13.61c0 .233.156.389.389.389h.155l4.123-1.633L9.333 14l4.356-1.478c.155-.078.311-.233.311-.389V.39c0-.234-.156-.39-.389-.39zM9.333 12.444l-4.666-1.633V1.556l4.666 1.633v9.255z" fill="#A2A5AD" fill-rule="evenodd"/></svg><svg width="12" height="18" viewBox="0 0 12 18" x="152" y="36"><title>6A14C2B7-71F3-488E-BD48-1AD42FDC9C8B</title><path d="M9 0H2.455A2.451 2.451 0 0 0 0 2.455v13.09A2.451 2.451 0 0 0 2.455 18H9a2.451 2.451 0 0 0 2.455-2.455V2.455A2.451 2.451 0 0 0 9 0zM7.364 16.364H4.09v-.819h3.273v.819zm2.659-2.455H1.432V2.455h8.59v11.454z" fill="#A2A5AD" fill-rule="evenodd"/></svg><svg width="16" height="18" viewBox="0 0 16 18" x="20" y="131"><title>C7D87027-5519-4E8A-B331-4C8B408A85E7</title><path d="M7.65 18c.99 0 1.8-.81 1.8-1.8h-3.6c0 .99.81 1.8 1.8 1.8zm5.85-5.4V7.65c0-2.79-1.89-5.04-4.5-5.67v-.63C9 .63 8.37 0 7.65 0 6.93 0 6.3.63 6.3 1.35v.63c-2.61.63-4.5 2.88-4.5 5.67v4.95L0 14.4v.9h15.3v-.9l-1.8-1.8zm-1.8.9H3.6V7.65C3.6 5.4 5.4 3.6 7.65 3.6s4.05 1.8 4.05 4.05v5.85z" fill="#0069C4" fill-rule="evenodd"/></svg><svg width="16" height="18" viewBox="0 0 16 18" x="36" y="131"><title>21AE2052-AE11-4E25-8079-6B036DB1F70D</title><path d="M7.65 18c.99 0 1.8-.81 1.8-1.8h-3.6c0 .99.81 1.8 1.8 1.8zm5.85-5.4V7.65c0-2.79-1.89-5.04-4.5-5.67v-.63C9 .63 8.37 0 7.65 0 6.93 0 6.3.63 6.3 1.35v.63c-2.61.63-4.5 2.88-4.5 5.67v4.95L0 14.4v.9h15.3v-.9l-1.8-1.8zm-1.8.9H3.6V7.65C3.6 5.4 5.4 3.6 7.65 3.6s4.05 1.8 4.05 4.05v5.85z" fill="#A2A5AD" fill-rule="evenodd"/></svg><svg width="16" height="18" viewBox="0 0 16 18" x="152" y="18"><title>560A8E3C-5DAC-45D4-8C98-37D26FF8DD56</title><path d="M7.65 18c.99 0 1.8-.81 1.8-1.8h-3.6c0 .99.81 1.8 1.8 1.8zm5.85-5.4V7.65c0-2.79-1.89-5.04-4.5-5.67v-.63C9 .63 8.37 0 7.65 0 6.93 0 6.3.63 6.3 1.35v.63c-2.61.63-4.5 2.88-4.5 5.67v4.95L0 14.4v.9h15.3v-.9l-1.8-1.8zm-1.8.9H3.6V7.65C3.6 5.4 5.4 3.6 7.65 3.6s4.05 1.8 4.05 4.05v5.85z" fill="#FB3E5E" fill-rule="evenodd"/></svg><svg width="15" height="12" viewBox="0 0 15 12" y="151"><title>7905D48E-D6FB-4C1A-AFBC-0E7026EBC319</title><path d="M5.085 8.624L1.292 4.83 0 6.113l5.085 5.085L15 1.283 13.717 0z" fill-rule="evenodd" opacity=".2"/></svg><svg width="15" height="12" viewBox="0 0 15 12" x="71" y="37"><title>D6F5F9B7-5047-454B-A9AD-E55B03CEF9A9</title><path d="M5.085 8.624L1.292 4.83 0 6.113l5.085 5.085L15 1.283 13.717 0z" fill="#FFF" fill-rule="evenodd"/></svg><svg width="18" height="18" viewBox="0 0 18 18" x="152"><title>E2277D51-5DD8-4354-901C-A78ECAD5B5F0</title><g fill="#18AEA6" fill-rule="evenodd"><path d="M1.884 6.58a6.639 6.639 0 0 0-1.2 1.63c1.109-.84 2.292-1.103 3.677-.326a16.253 16.253 0 0 1 1.647-3.223c-1.283-.006-2.895.689-4.124 1.918zm8.24 7.069c.777 1.386.515 2.568-.325 3.676a6.603 6.603 0 0 0 1.631-1.201c1.233-1.232 1.93-2.847 1.917-4.133a17.674 17.674 0 0 1-3.223 1.658zM17.052 0C10.6 0 6.928 4.919 5.592 8.875l3.545 3.547C13.208 10.962 18 7.426 18 1.042c0-.329-.012-.665-.039-1.01a13.412 13.412 0 0 0-.91-.032zm-6.507 6.404a.75.75 0 1 1 1.06 1.058.75.75 0 0 1-1.06-1.058zm2.121-3.182a1.5 1.5 0 1 1 2.121 2.12 1.5 1.5 0 0 1-2.12-2.12z"/><path d="M6.524 17.088c-.676.069-1.275-.154-1.767-.66-1.18.417-2.305-.036-2.898-.88-.466-.662-.57-1.501-.286-2.305-.507-.492-.73-1.086-.66-1.767.115-1.14 1.02-2.02 2.613-1.856l4.858 4.902c.155 1.521-.71 2.449-1.86 2.566z" opacity=".5"/></g></svg><svg width="9" height="11" viewBox="0 0 9 11" x="170" y="98"><title>E7FB359D-818F-4900-8345-FD75634D2BBB</title><path d="M4.05 7.11H1.001c-.553 0-.73-.346-.385-.787L5.07.633c.68-.868.989-.708.693.35L4.95 3.89h3.049c.553 0 .73.346.385.787l-4.454 5.69c-.68.868-.989.708-.693-.35L4.05 7.11z" fill="#CB9F27" fill-rule="evenodd"/></svg><svg width="12" height="12" viewBox="0 0 12 12" x="170" y="86"><title>AD60E72A-1773-45CB-A1EF-730B74D2A95E</title><defs><path d="M4.987 8.65l-2.42 1.272c-.488.257-.81.029-.716-.52l.462-2.695L.356 4.8c-.396-.386-.278-.763.274-.843l2.705-.393 1.21-2.45c.244-.496.638-.5.885 0l1.21 2.45 2.704.393c.547.08.673.453.274.843L7.66 6.707l.462 2.694c.093.545-.223.78-.717.52L4.987 8.65z" id="ae"/><mask id="af" x="-1" y="-1" width="11.729" height="11.287"><path fill="#fff" d="M-.877-.26h11.729v11.287H-.877z"/><use xlink:href="#ae"/></mask></defs><g transform="translate(1 1)" fill="none" fill-rule="evenodd"><use fill="#FACE02" xlink:href="#ae"/><use stroke="#FFF" mask="url(#af)" stroke-width="2" xlink:href="#ae"/></g></svg><svg width="12" height="12" viewBox="0 0 12 12" x="170" y="66"><title>7B127BF6-0E6C-416A-914D-220D35295D2F</title><defs><path d="M53 9.057l-2.42 1.272c-.488.257-.81.029-.716-.52l.462-2.695-1.957-1.907c-.396-.386-.278-.762.274-.843l2.705-.393 1.21-2.45c.244-.496.638-.5.885 0l1.21 2.45 2.704.393c.547.08.673.453.274.843l-1.957 1.907.462 2.694c.093.545-.223.78-.717.52L53 9.058z" id="ag"/><mask id="ah" x="-1" y="-1" width="11.729" height="11.287"><path fill="#fff" d="M47.136.147h11.729v11.287H47.136z"/><use xlink:href="#ag"/></mask></defs><g transform="translate(-47)" fill="none" fill-rule="evenodd" opacity=".15"><use fill="#000" xlink:href="#ag"/><use stroke="#FFF" mask="url(#ah)" stroke-width="2" xlink:href="#ag"/></g></svg><svg width="20" height="20" viewBox="0 0 20 20" x="103" y="106"><title>F90A98D1-76DA-4273-B37A-48739168DAA2</title><defs><circle id="ai" cx="9" cy="9" r="9"/><mask id="aj" x="0" y="0" width="18" height="18" fill="#fff"><use xlink:href="#ai"/></mask></defs><g stroke="#FFF" fill="none" fill-rule="evenodd"><use mask="url(#aj)" stroke-width="4" xlink:href="#ai"/><path d="M15 15l3.536 3.536" stroke-width="2" stroke-linecap="round" stroke-linejoin="round"/></g></svg><svg width="20" height="20" viewBox="0 0 20 20" y="131"><title>F90A98D1-76DA-4273-B37A-48739168DAA2</title><defs><circle id="ak" cx="9" cy="9" r="9"/><mask id="al" x="0" y="0" width="18" height="18" fill="#fff"><use xlink:href="#ak"/></mask></defs><g stroke="#000" fill="none" fill-rule="evenodd"><use mask="url(#al)" stroke-width="4" xlink:href="#ak"/><path d="M15 15l3.536 3.536" stroke-width="2" stroke-linecap="round" stroke-linejoin="round"/></g></svg><svg width="20" height="18" viewBox="0 0 20 18" x="123" y="106"><title>3E47FDCF-98AE-42AE-9F8D-05E35C924E2C</title><path d="M.007 15.994c.002 1.108.826 1.653 1.847 1.215l17.302-7.418c1.018-.437 1.021-1.144 0-1.582L1.854.791C.836.354.01.887.007 2.006L0 7l15 2-15 2 .007 4.994z" fill="#FB3E5E" fill-rule="evenodd"/></svg><svg width="18" height="17" viewBox="0 0 18 17" x="88" y="131"><title>5EAFDF87-FC2F-4E8C-809B-C08D7259D145</title><path d="M8.921 14.28l-4.898 2.575c-.485.255-.802.02-.71-.515l.935-5.455L.285 7.02c-.392-.382-.266-.756.271-.834l5.477-.796L8.483.428c.242-.49.637-.486.877 0l2.45 4.963 5.476.796c.542.079.66.456.272.834l-3.964 3.864.936 5.455c.092.54-.23.768-.71.515L8.921 14.28z" fill="#FACE02" fill-rule="evenodd" opacity=".9"/></svg><svg width="14" height="14" viewBox="0 0 14 14" x="170" y="38"><title>18A64B7F-4DD9-4A0E-830C-C157D275AC5D</title><path d="M7 11.204l-3.648 1.918c-.488.257-.807.017-.715-.52l.696-4.062-2.95-2.876c-.396-.385-.266-.763.273-.841l4.078-.593L6.558.535c.244-.495.643-.489.884 0L9.266 4.23l4.078.593c.546.08.664.46.273.841l-2.95 2.876.696 4.062c.093.544-.233.773-.716.52L7 11.204z" fill="#FACE02" fill-rule="evenodd"/></svg><svg width="13" height="20" viewBox="0 0 13 20" x="107" y="71"><title>38FC98FB-EA1E-4952-9EE1-A5025FC4BB7A</title><g fill="#3A9E2D" fill-rule="evenodd"><path d="M10.355 4.903L9.566.607a.334.334 0 0 0-.328-.274H4.095a.334.334 0 0 0-.328.274l-.789 4.296A6.256 6.256 0 0 0 .333 10c0 2.023.986 3.919 2.646 5.097l.788 4.296c.03.158.168.274.328.274H9.24c.16 0 .298-.115.328-.274l.788-4.296A6.256 6.256 0 0 0 13 10a6.254 6.254 0 0 0-2.645-5.097zm-3.688 9.43A4.338 4.338 0 0 1 2.333 10a4.338 4.338 0 0 1 4.334-4.333A4.338 4.338 0 0 1 11 10a4.338 4.338 0 0 1-4.333 4.333z"/><path d="M7 9.862V7.333a.333.333 0 0 0-.667 0V10c0 .089.036.173.098.236l1.333 1.333a.333.333 0 0 0 .472-.471L7 9.862z"/></g></svg><svg width="13" height="20" viewBox="0 0 13 20" x="107" y="51"><title>372D011F-895E-4E0E-9A31-788B7BEF90FB</title><g fill="#A2A5AD" fill-rule="evenodd"><path d="M10.355 4.903L9.566.607a.334.334 0 0 0-.328-.274H4.095a.334.334 0 0 0-.328.274l-.789 4.296A6.256 6.256 0 0 0 .333 10c0 2.023.986 3.919 2.646 5.097l.788 4.296c.03.158.168.274.328.274H9.24c.16 0 .298-.115.328-.274l.788-4.296A6.256 6.256 0 0 0 13 10a6.254 6.254 0 0 0-2.645-5.097zm-3.688 9.43A4.338 4.338 0 0 1 2.333 10a4.338 4.338 0 0 1 4.334-4.333A4.338 4.338 0 0 1 11 10a4.338 4.338 0 0 1-4.333 4.333z"/><path d="M7 9.862V7.333a.333.333 0 0 0-.667 0V10c0 .089.036.173.098.236l1.333 1.333a.333.333 0 0 0 .472-.471L7 9.862z"/></g></svg><svg width="10" height="10" viewBox="0 0 10 10" x="170" y="116"><title>182947B8-041D-4047-9A7F-66E40797DF0C</title><path d="M3.696 5L0 1.304 1.304 0 5 3.696 8.696 0 10 1.304 6.304 5 10 8.696 8.696 10 5 6.304 1.304 10 0 8.696 3.696 5z" fill-rule="evenodd" opacity=".2"/></svg><svg width="16" height="12" viewBox="0 0 16 12" x="152" y="119"><title>EC49C49A-9986-45E0-80CB-2550317B0481</title><path d="M13.09 2.91c0-1.6-1.308-2.91-2.908-2.91-1.6 0-2.91 1.31-2.91 2.91s1.31 2.908 2.91 2.908S13.09 4.51 13.09 2.91zm-9.454-.728H2.182v2.182H0v1.454h2.182V8h1.454V5.818h2.182V4.364H3.636V2.182zm.728 8v1.454H16v-1.454c0-1.964-3.855-2.91-5.818-2.91-1.964 0-5.818.946-5.818 2.91z" fill-rule="evenodd" opacity=".2"/></svg><svg width="15" height="10" viewBox="0 0 15 10" x="170" y="13"><title>5F3FC803-C5E1-4228-AFC2-926799A32930</title><path d="M11.667 3.75V.833A.836.836 0 0 0 10.833 0h-10A.836.836 0 0 0 0 .833v8.334c0 .458.375.833.833.833h10a.836.836 0 0 0 .834-.833V6.25L15 9.583V.417L11.667 3.75z" fill-rule="evenodd" opacity=".2"/></svg><svg width="12" height="8" viewBox="0 0 12 8" x="170" y="78"><title>BB7EA248-11AA-4586-AFD1-2C88BB99786C</title><g fill="none" fill-rule="evenodd" opacity=".4"><path d="M-2-4h16v16H-2z"/><path d="M9.333 3V.667C9.333.3 9.033 0 8.667 0h-8C.3 0 0 .3 0 .667v6.666C0 7.7.3 8 .667 8h8c.366 0 .666-.3.666-.667V5L12 7.667V.333L9.333 3z" fill="#FFF"/></g></svg><svg width="16" height="13" viewBox="0 0 16 13" x="107" y="91"><title>7801286A-8533-438F-803F-17BC834B9526</title><defs><path d="M16.756 22.823c-5.987-2.64-7.723-6.228-7.723-8.863 0-2.165 1.893-3.927 4.22-3.927 1.944 0 3.043 1.028 3.78 1.801.737-.773 1.836-1.801 3.78-1.801 2.327 0 4.22 1.762 4.22 3.927 0 2.635-1.71 5.887-7.723 8.863l-.277.108-.277-.108z" id="am"/><mask id="an" x="0" y="0" width="16" height="12.898" fill="#fff"><use xlink:href="#am"/></mask></defs><use mask="url(#an)" xlink:href="#am" transform="translate(-9 -10)" stroke="#000" stroke-width="3" fill="none" fill-rule="evenodd" opacity=".2"/></svg><svg width="14" height="15" viewBox="0 0 14 15" x="170" y="23"><title>F0A261CB-DFA4-4297-8247-F61A3784AA5C</title><defs><path d="M10 10.992C10 9.892 10.897 9 12.006 9h9.988A2 2 0 0 1 24 10.992V24l-6.91-2.813L10 24V10.992z" id="ao"/><mask id="ap" x="0" y="0" width="14" height="15" fill="#fff"><use xlink:href="#ao"/></mask></defs><use mask="url(#ap)" xlink:href="#ao" transform="translate(-10 -9)" stroke-width="3" stroke="#000" fill="none" fill-rule="evenodd" opacity=".2"/></svg><svg width="16" height="17" viewBox="0 0 16 17" x="152" y="54"><title>23EF7460-AE40-48CF-B324-BC957D924DE9</title><defs><path d="M1.5 16.5h10.997a1.998 1.998 0 0 0 2.003-1.992V3.492c0-1.1-.894-1.992-2.003-1.992H1.5" id="aq"/><mask id="ar" x="0" y="0" width="13" height="15" fill="#fff"><use xlink:href="#aq"/></mask></defs><g transform="translate(0 1)" stroke="#000" fill="none" fill-rule="evenodd" stroke-linecap="round" opacity=".2" stroke-linejoin="round"><use mask="url(#ar)" stroke-width="3" transform="rotate(90 8 9)" xlink:href="#aq"/><path d="M8 .3V7M8.2.5l3.3 3M7.8.5l-3.3 3" stroke-width="1.5"/></g></svg><svg width="22" height="12" viewBox="0 0 22 12" x="50" y="85"><title>1C7A900B-8558-40EB-BE5F-674E47125847</title><path d="M10.29 11.95h1.258s.38-.042.574-.251c.179-.192.173-.553.173-.553s-.025-1.687.758-1.935c.772-.245 1.763 1.63 2.814 2.352.794.545 1.398.426 1.398.426l2.809-.04s1.47-.09.772-1.246c-.057-.094-.406-.854-2.088-2.416-1.762-1.635-1.526-1.37.596-4.198C20.646 2.367 21.163 1.316 21 .865 20.847.436 19.897.55 19.897.55l-3.163.019S16.5.537 16.326.64c-.17.102-.279.34-.279.34s-.501 1.332-1.168 2.465c-1.409 2.392-1.972 2.518-2.202 2.37-.536-.346-.402-1.39-.402-2.132 0-2.318.352-3.284-.685-3.535-.343-.083-.596-.137-1.476-.146C8.986-.01 8.031.006 7.49.27c-.36.177-.638.57-.468.591.209.028.682.128.933.47.324.44.313 1.431.313 1.431s.186 2.728-.435 3.067c-.426.232-1.011-.242-2.267-2.412a20.19 20.19 0 0 1-1.129-2.34S4.344.85 4.177.726C3.974.577 3.69.53 3.69.53L.685.55S.235.562.07.758c-.148.175-.012.536-.012.536S2.41 6.798 5.075 9.572c2.443 2.545 5.217 2.377 5.217 2.377" fill="#FFF" fill-rule="evenodd"/></svg><svg width="22" height="12" viewBox="0 0 22 12" x="72" y="85"><title>79E7B180-08F0-4D53-9C1F-77856A096A5B</title><path d="M10.29 11.95h1.258s.38-.042.574-.251c.179-.192.173-.553.173-.553s-.025-1.687.758-1.935c.772-.245 1.763 1.63 2.814 2.352.794.545 1.398.426 1.398.426l2.809-.04s1.47-.09.772-1.246c-.057-.094-.406-.854-2.088-2.416-1.762-1.635-1.526-1.37.596-4.198C20.646 2.367 21.163 1.316 21 .865 20.847.436 19.897.55 19.897.55l-3.163.019S16.5.537 16.326.64c-.17.102-.279.34-.279.34s-.501 1.332-1.168 2.465c-1.409 2.392-1.972 2.518-2.202 2.37-.536-.346-.402-1.39-.402-2.132 0-2.318.352-3.284-.685-3.535-.343-.083-.596-.137-1.476-.146C8.986-.01 8.031.006 7.49.27c-.36.177-.638.57-.468.591.209.028.682.128.933.47.324.44.313 1.431.313 1.431s.186 2.728-.435 3.067c-.426.232-1.011-.242-2.267-2.412a20.19 20.19 0 0 1-1.129-2.34S4.344.85 4.177.726C3.974.577 3.69.53 3.69.53L.685.55S.235.562.07.758c-.148.175-.012.536-.012.536S2.41 6.798 5.075 9.572c2.443 2.545 5.217 2.377 5.217 2.377" fill-rule="evenodd" opacity=".4"/></svg></svg>